<svg width="512" height="512" viewBox="0 0 512 512" fill="none" xmlns="http://www.w3.org/2000/svg">
<g clip-path="url(#clip0_4_95)">
<rect x="40.1703" y="33.0684" width="445.863" height="445.863" rx="29.0676" fill="#F2F4FC"/>
<rect y="293.229" width="40.1703" height="127.357" fill="#FFFF00"/>
<rect x="486.033" y="293.229" width="25.9668" height="127.357" fill="#FFFF00"/>
<rect x="40.1703" y="293.229" width="445.863" height="127.357" fill="#F2F400"/>
<path d="M110.746 409.723V312.518C110.746 305.011 127.206 305.084 135.437 306.059C135.998 310.778 145.01 328.711 176.562 362.69C216.002 405.163 278.701 401.622 297.915 394.714C317.129 387.805 334.995 353.388 324.545 326.958C314.095 300.528 258.812 280.103 232.182 267.967C205.552 255.832 121.055 220.837 121.055 153.089C121.055 85.3401 187.331 61.4072 235.933 61.4072C284.535 61.4072 319.146 91.9677 328.351 103.014C337.556 114.06 340.501 97.8588 353.388 81.2899C366.275 64.721 382.844 55.9884 382.844 78.7125C382.844 103.014 385.79 185.122 382.844 199.481C379.899 213.841 368.116 200.954 362.961 189.908C357.807 178.862 338.678 149.038 283.979 119.095C230.946 90.0647 174.812 108.168 187.331 149.038C199.85 189.908 303.313 223.046 346.761 248.452C390.208 273.857 401.254 311.414 401.254 353.388C401.254 395.363 352.284 450.592 287.849 450.592C236.301 450.592 182.176 417.946 161.557 401.622C160.33 403.095 157.875 408.397 157.875 417.823C157.875 429.605 149.039 435.128 139.465 435.128C129.892 435.128 110.746 426.66 110.746 409.723Z" fill="black"/>
</g>
<defs>
<clipPath id="clip0_4_95">
<rect width="512" height="512" fill="white"/>
</clipPath>
</defs>
</svg>
